<svg width="196.000000" height="56.000000" viewBox="0 0 196 56" fill="none" xmlns="http://www.w3.org/2000/svg" xmlns:xlink="http://www.w3.org/1999/xlink">
	<desc>
			Created with Pixso.
	</desc>
	<defs/>
	<path id="Marico" d="M141.251 17.5204Q142.352 18.3176 144.03 18.3176Q145.62 18.3176 146.697 17.5746Q146.899 17.4353 147.083 17.2698Q147.647 16.7583 147.938 16.122Q148.249 15.4435 148.249 14.623Q148.249 13.7184 147.892 12.988Q147.604 12.3983 147.083 11.9221Q146.866 11.7213 146.623 11.558Q145.565 10.8472 144.03 10.8472Q142.408 10.8472 141.325 11.6116Q141.123 11.7537 140.941 11.9221Q140.42 12.3983 140.132 12.988Q139.775 13.7184 139.775 14.623Q139.775 15.4435 140.086 16.122Q140.377 16.7583 140.941 17.2698Q141.09 17.4036 141.251 17.5204ZM94.5195 41L94.5195 14.9121L85.7935 14.9121L79.3889 31.8584L72.8398 14.9121L64.0686 14.9121L64.0686 41L71.3223 41L71.3223 26.4927L76.2815 41L82.3518 41L87.2749 26.6101L87.2749 41L94.5195 41ZM98.6455 24.9841Q97.4803 27.387 97.4803 30.6028Q97.4803 33.8186 98.6455 36.2485Q99.6613 38.3589 101.322 39.618Q101.567 39.8033 101.825 39.9702Q102.641 40.4908 103.53 40.8016Q104.846 41.262 106.324 41.262Q108.438 41.262 110.009 40.4128Q111.183 39.7718 111.954 38.8083Q112.215 38.4819 112.43 38.1184L112.43 41L119.684 41L119.684 20.2417L112.43 20.2417L112.43 23.1323Q112.168 22.6854 111.838 22.2956Q111.101 21.4245 110.027 20.8379Q108.474 19.9797 106.324 19.9797Q104.864 19.9797 103.562 20.4319Q102.656 20.7467 101.825 21.2805Q101.556 21.4528 101.303 21.6451Q99.6554 22.894 98.6455 24.9841ZM151.903 24.9841Q150.575 27.387 150.575 30.6028Q150.575 33.8547 151.903 36.2666Q152.624 37.5625 153.65 38.5378Q154.526 39.371 155.625 39.9702Q155.678 39.9987 155.731 40.0265Q158.086 41.262 161.09 41.262Q164.183 41.262 166.508 39.9262Q167.158 39.5532 167.747 39.0759Q168.401 38.5473 168.941 37.9214Q170.636 35.9593 171.225 33.0417L163.529 33.0417Q163.174 34.1873 162.401 34.6901Q161.797 35.0833 160.936 35.0833Q160.291 35.0833 159.773 34.8262Q159.196 34.5402 158.777 33.936Q157.982 32.7888 157.982 30.6028Q157.982 28.4167 158.777 27.2966Q159.186 26.7157 159.746 26.4336Q160.274 26.1675 160.936 26.1675Q161.751 26.1675 162.34 26.5316Q163.143 27.0278 163.529 28.2L171.225 28.2Q170.621 25.178 168.852 23.1949Q168.347 22.629 167.747 22.1477Q167.184 21.6957 166.566 21.3379Q164.221 19.9797 161.09 19.9797Q158.119 19.9797 155.782 21.1969Q155.703 21.238 155.625 21.2805Q154.558 21.8581 153.702 22.6597Q152.642 23.6507 151.903 24.9841ZM178.476 40.0559Q180.872 41.262 183.874 41.262Q186.826 41.262 189.207 40.0963Q189.333 40.0349 189.457 39.9702Q190.68 39.3294 191.648 38.4167Q192.644 37.4768 193.368 36.2485Q193.436 36.1319 193.502 36.0135Q194.795 33.6643 194.795 30.6028Q194.795 27.4866 193.455 25.1337Q193.412 25.0585 193.368 24.9841Q192.609 23.7008 191.558 22.7347Q190.633 21.885 189.484 21.2805Q189.375 21.2227 189.264 21.1675Q186.889 19.9797 183.919 19.9797Q180.908 19.9797 178.512 21.1942Q178.429 21.2366 178.346 21.2805Q177.196 21.885 176.272 22.7347Q175.221 23.7008 174.462 24.9841Q174.417 25.0585 174.374 25.1337Q173.034 27.4866 173.034 30.6028Q173.034 33.8547 174.443 36.2666Q175.157 37.4838 176.14 38.4182Q177.097 39.3284 178.31 39.9702Q178.393 40.0138 178.476 40.0559ZM133.535 21.4169Q132.118 22.3898 131.077 23.9092L131.077 20.2417L123.824 20.2417L123.824 41L131.077 41L131.077 31.9307Q131.077 29.6879 132.182 28.7588Q132.203 28.7411 132.224 28.7239Q133.372 27.7935 135.738 27.7935L137.78 27.7935L137.78 20.061Q136.862 20.061 135.999 20.2787Q134.977 20.5365 134.031 21.0999Q133.778 21.2504 133.535 21.4169ZM147.616 41L147.616 20.2417L140.363 20.2417L140.363 41L147.616 41ZM185.256 34.6887Q184.626 34.9658 183.874 34.9658Q183.03 34.9658 182.359 34.6249Q181.824 34.3529 181.399 33.8638Q180.441 32.7527 180.441 30.6028Q180.441 28.498 181.435 27.387Q181.952 26.8143 182.596 26.5368Q183.201 26.2759 183.919 26.2759Q184.6 26.2759 185.184 26.5133Q185.864 26.7895 186.412 27.387Q187.433 28.498 187.433 30.6028Q187.433 32.7075 186.412 33.8367Q185.897 34.4064 185.256 34.6887ZM111.574 27.7347Q112.43 28.8363 112.43 30.6028Q112.43 32.4512 111.526 33.5675Q111.436 33.6786 111.337 33.7825Q110.797 34.3499 110.134 34.6367Q109.458 34.9297 108.654 34.9297Q107.778 34.9297 107.061 34.5908Q106.449 34.3013 105.953 33.7644Q105.856 33.6574 105.767 33.5434Q104.887 32.4158 104.887 30.6028Q104.887 28.6913 105.83 27.5788Q105.89 27.5084 105.953 27.4412Q106.418 26.9529 106.986 26.6757Q107.731 26.312 108.654 26.312Q109.458 26.312 110.134 26.605Q110.797 26.8918 111.337 27.4592Q111.463 27.5913 111.574 27.7347Z" fill="#FFFFFF" fill-opacity="1.000000" fill-rule="evenodd"/>
	<path id="Shape-3" d="M0 27.0481L0 45.8481L16.424 45.8481L16.424 43.1881L0 27.0481Z" fill="#326CF9" fill-opacity="1.000000" fill-rule="evenodd"/>
	<path id="Shape-4" d="M28.691 45.8521L45.113 45.8521L45.113 27.052L28.6951 43.193L28.691 45.8521Z" fill="#326CF9" fill-opacity="1.000000" fill-rule="evenodd"/>
	<path id="Shape-5" d="M45.115 3.84399L22.605 25.9709L0 3.75L0 22.87L22.605 45.0911L45.111 22.968L45.115 3.84399Z" fill="#326CF9" fill-opacity="1.000000" fill-rule="evenodd"/>
</svg>
