<svg width="37.000000" height="37.001709" viewBox="0 0 37 37.0017" fill="none" xmlns="http://www.w3.org/2000/svg" xmlns:xlink="http://www.w3.org/1999/xlink">
	<desc>
			Created with Pixso.
	</desc>
	<defs/>
	<circle id="Shape-53" cx="18.500000" cy="18.500000" r="18.500000" fill="#FFD93B" fill-opacity="1.000000"/>
	<path id="Shape-54" d="M18.503 30.3918C13.0955 30.3928 8.3764 26.7253 7.04199 21.4851C6.97015 21.2173 7.04785 20.9314 7.24542 20.7368C7.44299 20.5422 7.72998 20.469 7.9967 20.5449C8.26343 20.6208 8.46863 20.8345 8.534 21.104C9.69373 25.6624 13.798 28.8533 18.5015 28.8533C23.2051 28.8533 27.3093 25.6624 28.469 21.1038C28.5792 20.6973 28.9954 20.4543 29.4037 20.5583C29.812 20.6626 30.061 21.0752 29.963 21.4851C28.6296 26.7256 23.9105 30.3933 18.503 30.3918Z" fill="#3E4347" fill-opacity="1.000000" fill-rule="evenodd"/>
	<path id="Shape-55" d="M37 18.5032C37 26.3435 32.0548 33.334 24.6594 35.9453C17.264 38.5564 9.02588 36.2209 4.10144 30.1167C11.4606 36.0483 22.1078 35.4785 28.7917 28.7952C35.4758 22.1121 36.0469 11.4648 30.116 4.10498C34.4719 7.61499 37.0032 12.9089 37 18.5032Z" fill="#F4C534" fill-opacity="1.000000" fill-rule="evenodd"/>
	<ellipse id="Shape-56" cx="12.531067" cy="15.924805" rx="2.835000" ry="3.369000" fill="#3E4347" fill-opacity="1.000000"/>
	<path id="Shape-57" d="M13.808 15.2C13.5275 15.3616 13.1697 15.2766 12.992 15.0059C12.8142 14.8752 12.7365 14.6477 12.7971 14.4353C12.8577 14.2234 13.0439 14.071 13.2639 14.054C13.4839 14.0369 13.6914 14.1584 13.784 14.3589C14.0135 14.5886 14.024 14.9573 13.808 15.2Z" fill="#5A5F63" fill-opacity="1.000000" fill-rule="evenodd"/>
	<ellipse id="Shape-58" cx="24.481018" cy="15.924805" rx="2.835000" ry="3.369000" fill="#3E4347" fill-opacity="1.000000"/>
	<path id="Shape-59" d="M25.756 15.2C25.4755 15.3616 25.1177 15.2766 24.94 15.0059C24.7622 14.8752 24.6844 14.6477 24.7451 14.4353C24.8057 14.2234 24.9919 14.071 25.2119 14.054C25.4319 14.0369 25.6394 14.1584 25.732 14.3589C25.9615 14.5886 25.972 14.9573 25.756 15.2Z" fill="#5A5F63" fill-opacity="1.000000" fill-rule="evenodd"/>
</svg>
