<svg width="32.000000" height="32.000000" viewBox="0 0 32 32" fill="none" xmlns="http://www.w3.org/2000/svg" xmlns:xlink="http://www.w3.org/1999/xlink">
	<desc>
			Created with Pixso.
	</desc>
	<defs/>
	<circle id="Shape-42" cx="16.000000" cy="16.000000" r="16.000000" fill="#FFD93B" fill-opacity="1.000000"/>
	<path id="Shape-43" d="M25.793 20.9849C24.1411 24.9314 20.2812 27.5002 16.0029 27.5002C11.7247 27.5002 7.86475 24.9314 6.21289 20.9849C6.05701 20.6262 6.09875 20.2122 6.32324 19.8918C6.54761 19.5715 6.92261 19.3909 7.31299 19.4148C13.097 19.7817 18.8987 19.7817 24.6829 19.4148C25.0735 19.3918 25.4484 19.572 25.6743 19.8914C25.9001 20.2107 25.9451 20.6243 25.793 20.9849Z" fill="#3E4347" fill-opacity="1.000000" fill-rule="evenodd"/>
	<path id="Shape-44" d="M31.5729 16C31.5762 22.6042 27.4122 28.4929 21.1838 30.6917C14.9553 32.8904 8.01746 30.9209 3.87329 25.7773C10.0688 30.7754 19.0361 30.2971 24.6647 24.6682C30.2932 19.0396 30.7712 10.0723 25.7729 3.87695C29.4421 6.8313 31.575 11.2893 31.573 16L31.5729 16Z" fill="#F4C534" fill-opacity="1.000000" fill-rule="evenodd"/>
	<ellipse id="Shape-45" cx="9.580078" cy="11.712891" rx="5.655000" ry="5.660000" fill="#FFFFFF" fill-opacity="1.000000"/>
	<path id="Shape-46" d="M13.629 11.3538C13.6311 12.5137 12.9336 13.5608 11.8622 14.0056C10.7908 14.4507 9.55688 14.2058 8.73657 13.3855C7.91626 12.5652 7.67126 11.3313 8.11609 10.26C8.56091 9.18848 9.60779 8.49097 10.7678 8.49292C11.5271 8.4917 12.2556 8.79248 12.7925 9.32935C13.3293 9.86621 13.6302 10.5947 13.629 11.3538Z" fill="#3E4347" fill-opacity="1.000000" fill-rule="evenodd"/>
	<path id="Shape-47" d="M12.413 10.8101C12.218 11.01 11.813 10.9172 11.5081 10.6101C11.203 10.303 11.108 9.90991 11.308 9.70508C11.5081 9.50024 11.908 9.60522 12.213 9.90503C12.5181 10.2051 12.6169 10.615 12.413 10.8101Z" fill="#FFFFFF" fill-opacity="1.000000" fill-rule="evenodd"/>
	<ellipse id="Shape-48" cx="22.420044" cy="11.712891" rx="5.655000" ry="5.660000" fill="#FFFFFF" fill-opacity="1.000000"/>
	<path id="Shape-49" d="M18.0911 11.3538C18.089 12.5137 18.7864 13.5608 19.8578 14.0056C20.9292 14.4507 22.1631 14.2058 22.9835 13.3855C23.8038 12.5652 24.0488 11.3313 23.604 10.26C23.1592 9.18848 22.1123 8.49097 20.9521 8.49292C20.193 8.4917 19.4645 8.79248 18.9276 9.32935C18.3907 9.86621 18.0897 10.5947 18.0911 11.3538Z" fill="#3E4347" fill-opacity="1.000000" fill-rule="evenodd"/>
	<path id="Shape-50" d="M19.3071 10.8101C19.5021 11.01 19.907 10.9172 20.2122 10.6101C20.5171 10.303 20.6121 9.90991 20.4121 9.70508C20.2122 9.50024 19.812 9.60522 19.5071 9.90503C19.2021 10.2051 19.0991 10.615 19.3071 10.8101Z" fill="#FFFFFF" fill-opacity="1.000000" fill-rule="evenodd"/>
	<path id="Shape-51" d="M7.31299 19.4158C7.24609 19.4148 7.1792 19.4197 7.11304 19.4309C8.92004 21.8779 12.2131 22.0129 15.9961 22.0129C19.7791 22.0129 23.072 21.8779 24.8792 19.4309C24.813 19.4202 24.7461 19.4148 24.6791 19.4158C18.8961 19.7827 13.0957 19.7827 7.31287 19.4158L7.31299 19.4158Z" fill="#FFFFFF" fill-opacity="1.000000" fill-rule="evenodd"/>
	<path id="Shape-52" d="M15.998 27.501C17.5625 27.5024 19.1077 27.1565 20.522 26.488C20.4661 25.3921 20.0116 24.3542 19.2441 23.5701C18.6375 22.9617 17.7358 22.7551 16.925 23.0391C16.1608 23.3047 15.3572 23.4399 14.5481 23.439C13.0789 23.4478 11.8215 24.4954 11.5481 25.939C11.5192 26.124 11.5021 26.3108 11.4971 26.498C12.9053 27.1597 14.4421 27.5022 15.998 27.501Z" fill="#E24B4B" fill-opacity="1.000000" fill-rule="evenodd"/>
</svg>
