<svg width="43.207520" height="42.488525" viewBox="0 0 43.2075 42.4885" fill="none" xmlns="http://www.w3.org/2000/svg" xmlns:xlink="http://www.w3.org/1999/xlink">
	<desc>
			Created with Pixso.
	</desc>
	<defs/>
	<path id="Shape-10" d="M13.5746 12.9861L21.0066 1.06616C21.1292 0.850098 21.3583 0.716797 21.6066 0.716797C21.8549 0.716797 22.084 0.850098 22.2065 1.06616L29.6335 12.9861L13.5746 12.9861Z" fill="#955BA5" fill-opacity="1.000000" fill-rule="evenodd"/>
	<path id="Shape-11" d="M9.36145 2.16089C8.96375 2.16089 8.64148 1.83862 8.64148 1.44116L8.64148 0.719971C8.64148 0.32251 8.96375 0 9.36145 0C9.75903 0 10.0814 0.32251 10.0814 0.719971L10.0814 1.43994C10.0817 1.6311 10.006 1.81445 9.87097 1.94971C9.73584 2.08496 9.55261 2.16089 9.36145 2.16089Z" fill="#F0C419" fill-opacity="1.000000" fill-rule="evenodd"/>
	<path id="Shape-12" d="M9.36145 5.76099C8.96375 5.76099 8.64148 5.43848 8.64148 5.04077L8.64148 4.3208C8.64148 3.92334 8.96375 3.60083 9.36145 3.60083C9.75903 3.60083 10.0814 3.92334 10.0814 4.3208L10.0814 5.04077C10.0814 5.43848 9.75903 5.76099 9.36145 5.76099Z" fill="#F0C419" fill-opacity="1.000000" fill-rule="evenodd"/>
	<path id="Shape-13" d="M7.92151 3.60083L7.20154 3.60083C6.80396 3.60083 6.48157 3.27856 6.48157 2.88086C6.48157 2.48315 6.80396 2.16089 7.20154 2.16089L7.92151 2.16089C8.31921 2.16089 8.6416 2.48315 8.6416 2.88086C8.6416 3.27856 8.31921 3.60083 7.92151 3.60083Z" fill="#F0C419" fill-opacity="1.000000" fill-rule="evenodd"/>
	<path id="Shape-14" d="M11.5225 3.60083L10.8025 3.60083C10.4048 3.60083 10.0824 3.27856 10.0824 2.88086C10.0824 2.48315 10.4048 2.16089 10.8025 2.16089L11.5225 2.16089C11.92 2.16089 12.2424 2.48315 12.2424 2.88086C12.2424 3.27856 11.92 3.60083 11.5225 3.60083Z" fill="#F0C419" fill-opacity="1.000000" fill-rule="evenodd"/>
	<path id="Shape-15" d="M2.88049 10.0808C2.48279 10.0808 2.1604 9.75854 2.1604 9.36084L2.1604 8.64087C2.1604 8.24341 2.48279 7.9209 2.88049 7.9209C3.27808 7.9209 3.60046 8.24341 3.60046 8.64087L3.60046 9.36084C3.60046 9.75854 3.27808 10.0808 2.88049 10.0808Z" fill="#F0C419" fill-opacity="1.000000" fill-rule="evenodd"/>
	<path id="Shape-16" d="M2.88049 13.687C2.48279 13.687 2.1604 13.3647 2.1604 12.967L2.1604 12.2471C2.1604 11.8494 2.48279 11.5271 2.88049 11.5271C3.27808 11.5271 3.60046 11.8494 3.60046 12.2471L3.60046 12.967C3.60046 13.3647 3.27808 13.687 2.88049 13.687Z" fill="#F0C419" fill-opacity="1.000000" fill-rule="evenodd"/>
	<path id="Shape-17" d="M1.44043 11.5217L0.720459 11.5217C0.32251 11.5217 0 11.1992 0 10.8013C0 10.4036 0.32251 10.0808 0.720459 10.0808L1.44043 10.0808C1.83838 10.0808 2.16101 10.4036 2.16101 10.8013C2.16101 11.1992 1.83838 11.5217 1.44043 11.5217Z" fill="#F0C419" fill-opacity="1.000000" fill-rule="evenodd"/>
	<path id="Shape-18" d="M5.0415 11.5217L4.32153 11.5217C3.92358 11.5217 3.60095 11.1992 3.60095 10.8013C3.60095 10.4036 3.92358 10.0808 4.32153 10.0808L5.0415 10.0808C5.43945 10.0808 5.76196 10.4036 5.76196 10.8013C5.76196 11.1992 5.43945 11.5217 5.0415 11.5217Z" fill="#F0C419" fill-opacity="1.000000" fill-rule="evenodd"/>
	<path id="Shape-19" d="M33.1255 3.60132C32.7278 3.60132 32.4055 3.27881 32.4055 2.8811L32.4055 2.16113C32.4055 1.76367 32.7279 1.44116 33.1255 1.44116C33.5232 1.44116 33.8455 1.76367 33.8455 2.16113L33.8455 2.8811C33.8456 3.27881 33.5232 3.60132 33.1255 3.60132Z" fill="#F0C419" fill-opacity="1.000000" fill-rule="evenodd"/>
	<path id="Shape-20" d="M33.1255 7.20093C32.7278 7.20093 32.4055 6.87866 32.4055 6.48096L32.4055 5.76099C32.4055 5.36353 32.7279 5.04102 33.1255 5.04102C33.5232 5.04102 33.8455 5.36353 33.8455 5.76099L33.8455 6.48096C33.8456 6.87866 33.5232 7.20093 33.1255 7.20093Z" fill="#F0C419" fill-opacity="1.000000" fill-rule="evenodd"/>
	<path id="Shape-21" d="M31.6854 5.04077L30.9655 5.04077C30.708 5.04126 30.47 4.90405 30.3411 4.68115C30.2122 4.45825 30.2123 4.18359 30.3411 3.96069C30.47 3.73779 30.708 3.60034 30.9655 3.60083L31.6854 3.60083C31.9429 3.60034 32.1809 3.73779 32.3098 3.96069C32.4386 4.18359 32.4386 4.45825 32.3098 4.68115C32.1809 4.90405 31.9429 5.04126 31.6853 5.04077L31.6854 5.04077Z" fill="#F0C419" fill-opacity="1.000000" fill-rule="evenodd"/>
	<path id="Shape-22" d="M35.2865 5.04077L34.5664 5.04077C34.3091 5.04126 34.0709 4.90405 33.9421 4.68115C33.8132 4.45825 33.8132 4.18359 33.9421 3.96069C34.071 3.73779 34.3091 3.60034 34.5665 3.60083L35.2865 3.60083C35.5439 3.60034 35.782 3.73779 35.9109 3.96069C36.0397 4.18359 36.0397 4.45825 35.9108 4.68115C35.782 4.90405 35.5439 5.04126 35.2864 5.04077L35.2865 5.04077Z" fill="#F0C419" fill-opacity="1.000000" fill-rule="evenodd"/>
	<path id="Shape-23" d="M40.3264 10.802C39.9288 10.802 39.6064 10.4797 39.6064 10.082L39.6064 9.36206C39.6064 8.96436 39.9288 8.64209 40.3264 8.64209C40.7241 8.64209 41.0465 8.96436 41.0465 9.36206L41.0465 10.082C41.0465 10.4797 40.7241 10.802 40.3264 10.802Z" fill="#F0C419" fill-opacity="1.000000" fill-rule="evenodd"/>
	<path id="Shape-24" d="M40.3264 14.4031C39.9288 14.4031 39.6064 14.0806 39.6064 13.6829L39.6064 12.9629C39.6064 12.5654 39.9288 12.2429 40.3264 12.2429C40.7241 12.2429 41.0465 12.5654 41.0465 12.9629L41.0465 13.6829C41.0465 14.0806 40.7241 14.4031 40.3264 14.4031Z" fill="#F0C419" fill-opacity="1.000000" fill-rule="evenodd"/>
	<path id="Shape-25" d="M38.8865 12.2419L38.1665 12.2419C37.7688 12.2419 37.4465 11.9197 37.4465 11.522C37.4465 11.1245 37.7688 10.802 38.1665 10.802L38.8865 10.802C39.2842 10.802 39.6064 11.1245 39.6064 11.522C39.6064 11.9197 39.2842 12.2419 38.8865 12.2419Z" fill="#F0C419" fill-opacity="1.000000" fill-rule="evenodd"/>
	<path id="Shape-26" d="M42.4875 12.2419L41.7675 12.2419C41.3699 12.2419 41.0475 11.9197 41.0475 11.522C41.0475 11.1245 41.3699 10.802 41.7675 10.802L42.4875 10.802C42.8851 10.802 43.2075 11.1245 43.2075 11.522C43.2075 11.9197 42.8851 12.2419 42.4875 12.2419Z" fill="#F0C419" fill-opacity="1.000000" fill-rule="evenodd"/>
	<path id="Shape-27" d="M37.4465 26.645C37.4465 33.053 33.5863 38.8298 27.6661 41.282C21.7458 43.7341 14.9314 42.3787 10.4004 37.8474C5.86938 33.3162 4.51428 26.5017 6.9668 20.5813C9.41931 14.6614 15.1965 10.8015 21.6045 10.802C25.8062 10.802 29.8358 12.4712 32.8068 15.4424C35.7778 18.4136 37.4468 22.4431 37.4465 26.645Z" fill="#F0C419" fill-opacity="1.000000" fill-rule="evenodd"/>
	<path id="Shape-28" d="M18.7235 23.0442C18.5063 23.0442 18.3005 22.9465 18.1635 22.7781C17.6206 22.0398 16.7589 21.6038 15.8425 21.6038C14.9261 21.6038 14.0643 22.0398 13.5215 22.7781C13.2712 23.0872 12.8179 23.135 12.5087 22.885C12.1995 22.6348 12.1515 22.1814 12.4015 21.8721C13.2183 20.7957 14.4917 20.1633 15.843 20.1633C17.1942 20.1633 18.4677 20.7957 19.2844 21.8721C19.4586 22.0879 19.4932 22.3848 19.3734 22.635C19.2537 22.885 19.0009 23.0442 18.7235 23.0442Z" fill="#E57E25" fill-opacity="1.000000" fill-rule="evenodd"/>
	<path id="Shape-29" d="M12.9624 19.4431C12.7312 19.4429 12.514 19.3318 12.3788 19.1443C12.2435 18.9568 12.2065 18.7156 12.2795 18.4961C12.9808 16.7766 14.7106 15.7051 16.5625 15.843C16.9601 15.843 17.2825 16.1653 17.2825 16.563C17.2825 16.9607 16.9601 17.283 16.5625 17.283C15.3331 17.1575 14.1602 17.8281 13.6445 18.9509C13.5465 19.2444 13.2719 19.4426 12.9624 19.4431Z" fill="#2C2F38" fill-opacity="1.000000" fill-rule="evenodd"/>
	<path id="Shape-30" d="M30.2455 23.0439C30.0271 23.0442 29.8203 22.9453 29.6835 22.7749C29.1405 22.0374 28.2793 21.6021 27.3635 21.6021C26.4478 21.6021 25.5864 22.0374 25.0435 22.7749C24.7932 23.084 24.3398 23.1318 24.0306 22.8816C23.7214 22.6316 23.6735 22.1782 23.9235 21.8689C24.7402 20.7925 26.0137 20.1602 27.365 20.1602C28.7163 20.1602 29.9897 20.7925 30.8065 21.8689C30.9806 22.085 31.0153 22.3816 30.8955 22.6318C30.7756 22.8821 30.5228 23.0413 30.2455 23.041L30.2455 23.0439Z" fill="#E57E25" fill-opacity="1.000000" fill-rule="evenodd"/>
	<path id="Shape-31" d="M30.2445 19.4431C29.9368 19.4429 29.6631 19.2471 29.5635 18.9561C29.0469 17.8328 27.8749 17.1609 26.6445 17.282C26.2468 17.282 25.9244 16.9597 25.9244 16.562C25.9244 16.1643 26.2468 15.842 26.6445 15.842C28.4963 15.7041 30.2261 16.7754 30.9275 18.4949C31.0004 18.7146 30.9634 18.9556 30.8281 19.1433C30.6929 19.3308 30.4757 19.4419 30.2444 19.4421L30.2445 19.4431Z" fill="#2C2F38" fill-opacity="1.000000" fill-rule="evenodd"/>
	<path id="Shape-32" d="M32.4025 28.459C32.4025 28.959 32.3955 29.446 32.3525 29.9421C32.3165 30.5054 32.2444 31.0659 32.1365 31.6199C32.1302 31.6755 32.1206 31.7307 32.1074 31.7849C31.8356 33.1597 31.1903 34.4329 30.2424 35.4651C29.8621 35.9019 29.4348 36.2954 28.9685 36.6389C28.256 37.1829 27.4736 37.6287 26.6425 37.9641C26.5195 38.0139 26.3905 38.0642 26.2605 38.1082C25.9215 38.23 25.5835 38.3311 25.2374 38.425C24.2841 38.6755 23.3064 38.8228 22.3215 38.864C22.0764 38.8782 21.8385 38.886 21.6014 38.886C21.3645 38.886 21.1265 38.8792 20.8815 38.864C19.8965 38.8228 18.9189 38.6755 17.9655 38.425C17.6205 38.3311 17.2815 38.2312 16.9425 38.1082C16.8125 38.0642 16.6835 38.0139 16.5604 37.9641C15.7292 37.6287 14.947 37.1829 14.2345 36.6389C13.7681 36.2954 13.3408 35.9019 12.9604 35.4651C12.0127 34.4329 11.3674 33.1597 11.0955 31.7849C11.0823 31.7307 11.0726 31.6755 11.0664 31.6199C10.9586 31.0659 10.8865 30.5054 10.8505 29.9421C10.8075 29.4421 10.8004 28.9551 10.8004 28.459C10.8075 28.25 10.8075 28.041 10.8225 27.832C10.8225 27.688 10.8295 27.532 10.8435 27.3931C10.8691 27.2649 10.8811 27.1345 10.8794 27.0039C10.8794 27.0042 11.1315 27.198 11.5795 27.5042L11.5864 27.5042C11.9464 27.749 12.4435 28.0579 13.0554 28.397C13.4554 28.627 13.9125 28.865 14.4025 29.0969C15.1178 29.4351 15.8524 29.731 16.6024 29.9832C17.0564 30.134 17.5244 30.271 18.0024 30.3831C18.9464 30.6165 19.911 30.7563 20.8824 30.801C21.0695 30.8081 21.2565 30.8149 21.4514 30.8149L21.7515 30.8149C21.9454 30.8149 22.1334 30.8081 22.3204 30.801C23.2917 30.7563 24.2565 30.6165 25.2004 30.3831C25.6824 30.2681 26.1504 30.1311 26.6005 29.9832C27.3505 29.731 28.0851 29.4351 28.8004 29.0969C29.2904 28.8669 29.7434 28.6292 30.1475 28.397C30.7594 28.0579 31.2634 27.7419 31.6234 27.4971C32.0774 27.197 32.3235 26.9971 32.3235 26.9971C32.3218 27.1277 32.3339 27.2581 32.3594 27.386C32.3744 27.53 32.3804 27.686 32.3804 27.825C32.3954 28.0339 32.3954 28.2429 32.4025 28.4519L32.4025 28.459Z" fill="#FFFFFF" fill-opacity="1.000000" fill-rule="evenodd"/>
	<path id="Shape-33" d="M32.3555 29.9421C32.3195 30.5054 32.2473 31.0659 32.1395 31.6199C31.5306 32.0417 30.8983 32.429 30.2455 32.7791C29.8135 33.0171 29.3315 33.2542 28.8055 33.4919C28.1028 33.8132 27.3816 34.092 26.6455 34.3269C26.1844 34.478 25.7025 34.615 25.2054 34.7271C24.2595 34.947 23.2957 35.0811 22.3254 35.127C22.1384 35.127 21.9515 35.134 21.7565 35.134L21.4565 35.134C21.2625 35.134 21.0745 35.127 20.8875 35.127C19.9174 35.0811 18.9534 34.947 18.0076 34.7271C17.5074 34.6121 17.0284 34.4749 16.5675 34.3269C15.8314 34.092 15.1101 33.8132 14.4075 33.4919C13.8815 33.2542 13.3994 33.0171 12.9675 32.7791C12.3147 32.429 11.6824 32.0417 11.0735 31.6201C10.9656 31.0659 10.8934 30.5054 10.8574 29.9421C11.0441 29.9155 11.2335 29.9648 11.3834 30.0789C11.8906 30.4597 12.4196 30.8108 12.9674 31.1301C13.3774 31.375 13.8605 31.6409 14.4075 31.908C15.1089 32.2527 15.8302 32.5557 16.5675 32.8152C17.0284 32.9739 17.5105 33.125 18.0074 33.2471C18.95 33.4915 19.915 33.6387 20.8875 33.686C21.0745 33.6931 21.2615 33.7 21.4565 33.7L21.7565 33.7C21.9504 33.7 22.1384 33.6931 22.3254 33.686C23.298 33.6387 24.2631 33.4915 25.2054 33.2471C25.7054 33.125 26.1844 32.9729 26.6455 32.8152C27.3828 32.5557 28.104 32.2527 28.8055 31.908C29.3535 31.6409 29.8354 31.375 30.2455 31.1301C30.7935 30.8108 31.3223 30.4597 31.8295 30.0789C31.9795 29.9648 32.1689 29.9155 32.3555 29.9421Z" fill="#E6E7E8" fill-opacity="1.000000" fill-rule="evenodd"/>
	<path id="Shape-34" d="M22.3235 30.8059L22.3235 38.864C22.0785 38.8792 21.8405 38.886 21.6035 38.886C21.3665 38.886 21.1284 38.8792 20.8834 38.864L20.8834 30.8059C21.0704 30.813 21.2584 30.8198 21.4524 30.8198L21.7524 30.8198C21.9495 30.821 22.1365 30.813 22.3235 30.8059Z" fill="#E6E7E8" fill-opacity="1.000000" fill-rule="evenodd"/>
	<path id="Shape-35" d="M18.0034 30.3889L18.0034 38.2239C18.006 38.2925 17.9938 38.3606 17.9675 38.4241C17.6224 38.3298 17.2834 38.23 16.9445 38.1069C16.8145 38.064 16.6855 38.0129 16.5625 37.9629L16.5625 30.1929C16.5635 30.1218 16.5757 30.0513 16.5985 29.9839C17.0525 30.137 17.5215 30.2739 18.0034 30.3889Z" fill="#E6E7E8" fill-opacity="1.000000" fill-rule="evenodd"/>
	<path id="Shape-36" d="M14.4026 29.1001L14.4026 36.1863C14.405 36.3528 14.3458 36.5144 14.2366 36.6399C13.7701 36.2966 13.3429 35.9031 12.9625 35.4663L12.9625 28.7471C12.9601 28.6252 12.9927 28.5051 13.0565 28.4011C13.4565 28.6311 13.9136 28.8691 14.4036 29.1011L14.4026 29.1001Z" fill="#E6E7E8" fill-opacity="1.000000" fill-rule="evenodd"/>
	<path id="Shape-37" d="M30.2455 28.7468L30.2455 35.4651C29.8651 35.9016 29.4379 36.2954 28.9714 36.6389C28.8622 36.5132 28.8031 36.3516 28.8054 36.1851L28.8055 29.0989C29.2955 28.8689 29.7485 28.6311 30.1525 28.3989C30.2163 28.5029 30.249 28.623 30.2465 28.7449L30.2455 28.7468Z" fill="#E6E7E8" fill-opacity="1.000000" fill-rule="evenodd"/>
	<path id="Shape-38" d="M26.6415 30.1941L26.6415 37.9641C26.5186 38.0139 26.3895 38.064 26.2595 38.1079C25.9205 38.23 25.5825 38.3308 25.2366 38.425C25.2103 38.3616 25.198 38.2935 25.2004 38.2251L25.2004 30.3899C25.6825 30.2749 26.1505 30.1379 26.6005 29.99C26.6233 30.0574 26.6355 30.1279 26.6365 30.199L26.6415 30.1941Z" fill="#E6E7E8" fill-opacity="1.000000" fill-rule="evenodd"/>
	<path id="Shape-39" d="M8.99854 29.25C8.76147 29.25 8.53979 29.1328 8.40649 28.9368C8.27319 28.7407 8.24548 28.4915 8.33252 28.271C8.42053 28.0552 9.30554 26.134 13.2325 25.666C13.6274 25.6191 13.9856 25.9011 14.0325 26.2961C14.0795 26.6909 13.7974 27.0491 13.4025 27.0959C10.3315 27.4631 9.66357 28.8152 9.65845 28.8281C9.53784 29.084 9.28137 29.248 8.99854 29.2502L8.99854 29.25Z" fill="#E57E25" fill-opacity="1.000000" fill-rule="evenodd"/>
	<path id="Shape-40" d="M34.2054 29.2651C33.9187 29.2654 33.6592 29.0957 33.5444 28.833C33.5175 28.78 32.8245 27.4651 29.7994 27.105C29.4045 27.0581 29.1226 26.7 29.1694 26.3049C29.2164 25.9102 29.5746 25.6279 29.9695 25.675C33.8994 26.144 34.7844 28.063 34.8695 28.28C34.9592 28.502 34.9329 28.7542 34.7988 28.9526C34.6649 29.1514 34.4409 29.2703 34.2014 29.27L34.2054 29.2651Z" fill="#E57E25" fill-opacity="1.000000" fill-rule="evenodd"/>
	<path id="Shape-41" d="M25.9604 7.09302C23.1134 6.27686 20.0945 6.27686 17.2474 7.09302L21.0065 1.06519C21.129 0.849121 21.3582 0.71582 21.6064 0.71582C21.8547 0.71582 22.0839 0.849121 22.2064 1.06519L25.9604 7.09302Z" fill="#B49ACA" fill-opacity="1.000000" fill-rule="evenodd"/>
</svg>
